# xmcd
# 
# Track frame offsets:
#     182
#     30935
#     55325
#     91355
#     128647
#     161497
#     195185
#     225960
#     255192
# 
# Disc length: 3734
# 
# Revision: 1
# Processed by: cddbd v1.5.2PL0 Copyright (c) Steve Scherf et al.
# Submitted via: BonkEnc v1.0.8
# 
DISCID=580e9409
DTITLE=André Jaume, Charlie Haden, Olivier Clerc - Peace - Pace - Paix
DYEAR=1991
DGENRE=Contemporary Jazz
TTITLE0=Human Being
TTITLE1=Anouman
TTITLE2=First Song
TTITLE3=Peace
TTITLE4=Chrystal
TTITLE5=Sunday At The Hillcrest
TTITLE6=Silenziu
TTITLE7=Troublant Bolero
TTITLE8=Blues Connotation
EXTD=YEAR: 1991
EXTT0=
EXTT1=
EXTT2=
EXTT3=
EXTT4=
EXTT5=
EXTT6=
EXTT7=
EXTT8=
PLAYORDER=
